<?xml version="1.0" encoding="UTF-8"?>
<svg width="38px" height="35px" viewBox="0 0 38 35" version="1.1" xmlns="http://www.w3.org/2000/svg" xmlns:xlink="http://www.w3.org/1999/xlink">
    <title>E04DE417-7E91-475C-A4A1-F2EA03BD80C6@1.5x</title>
    <defs>
        <path d="M32.6901386,7.26224617 C40.1380851,13.4338879 39.6976337,24.0637688 31.703873,29.7553186 C26.7915447,33.2516774 21.2107666,34.1982899 15.2309914,33.2889991 C14.4036337,33.1617662 13.7403657,33.222838 13.0062801,33.660519 C10.4723892,35.1737418 6.77777942,36.4630347 4.5979769,36.6428571 C5.90205844,34.7411501 7.13186778,32.9497115 8.36858617,31.1463978 C7.41686573,30.4763048 6.45823626,29.8740692 5.58769706,29.1751367 C-1.95179421,23.1256386 -1.84470407,12.9707603 5.80705912,6.94501225 C13.1271883,1.18051569 25.5254629,1.32640936 32.6901386,7.26224617 Z M18.5657143,22.2842857 C17.1,22.2842857 15.9057143,23.4514286 15.9057143,24.8628571 C15.9057143,26.3014286 17.1271429,27.4142857 18.5657143,27.4142857 C20.0314286,27.4142857 21.1985714,26.2742857 21.1985714,24.8357143 C21.1985714,23.4242857 20.0042857,22.2842857 18.5657143,22.2842857 Z M18.7557143,7.41 C16.2314286,7.41 14.06,8.44142857 12.8657143,10.3957143 C12.4857143,11.02 12.4585714,11.5357143 12.4585714,11.8342857 C12.4585714,13.0285714 13.3271429,13.8971429 14.5485714,13.8971429 C15.39,13.8971429 16.0142857,13.5442857 16.5842857,12.4585714 C16.9914286,11.6985714 17.67,11.2371429 18.5928571,11.2371429 C19.8142857,11.2371429 20.5742857,11.9971429 20.5742857,13.1371429 C20.5742857,13.9785714 20.14,14.44 19.4614286,15.0642857 L19.4614286,15.0642857 L18.5657143,15.9057143 C17.2357143,17.1542857 16.4485714,18.1042857 16.4485714,19.2442857 C16.4485714,20.9542857 17.86,21.3614286 18.5657143,21.3614286 C19.2714286,21.3614286 20.2485714,21.1171429 20.7371429,19.5971429 C21.0085714,18.7557143 21.28,18.4571429 22.1214286,17.7785714 C23.9942857,16.34 25.1614286,15.2271429 25.1614286,12.8385714 C25.1614286,9.06571429 21.9857143,7.41 18.7557143,7.41 Z" id="path-1"></path>
    </defs>
    <g id="CN-Design-Kit" stroke="none" stroke-width="1" fill="none" fill-rule="evenodd">
        <g id="Icons" transform="translate(-1246.000000, -800.000000)">
            <g id="icon-/-quizzes-copy" transform="translate(1246.000000, 798.000000)">
                <mask id="mask-2" fill="white">
                    <use xlink:href="#path-1"></use>
                </mask>
                <use id="Combined-Shape" fill="#FFFFFF" xlink:href="#path-1"></use>
                <g id="Group" mask="url(#mask-2)" fill="#FFFFFF">
                    <g id="Color/Grey/0">
                        <rect id="Rectangle" x="0" y="0" width="38" height="38"></rect>
                    </g>
                </g>
            </g>
        </g>
    </g>
</svg>